<?xml version="1.0" encoding="utf-8"?>
<!-- Generator: Adobe Illustrator 21.0.0, SVG Export Plug-In . SVG Version: 6.00 Build 0)  -->
<svg version="1.1" id="Layer_1" xmlns="http://www.w3.org/2000/svg" xmlns:xlink="http://www.w3.org/1999/xlink" x="0px" y="0px"
	 width="612px" height="374.78px" viewBox="0 0 142 41.7" style="enable-background:new 0 0 142 41.7;" xml:space="preserve">
<style type="text/css">
	.st0{fill:#348735;}
	.st1{clip-path:url(#SVGID_2_);fill:#C25717;}
	.st2{clip-path:url(#SVGID_4_);fill:#348735;}
	.st3{clip-path:url(#SVGID_6_);fill:#348735;}
	.st4{clip-path:url(#SVGID_8_);fill:#348735;}
	.st5{clip-path:url(#SVGID_10_);fill:#348735;}
	.st6{fill:#FFFFFF;}
</style>
<g>
	<path class="st0" d="M142,41.6V0.2H33.2c7.7,3.7,13.1,11.6,13.1,20.7s-5.4,17-13.1,20.7H142z"/>
</g>
<g>
	<g>
		<defs>
			<rect id="SVGID_1_" x="-9.9" width="60.1" height="41.7"/>
		</defs>
		<clipPath id="SVGID_2_">
			<use xlink:href="#SVGID_1_"  style="overflow:visible;"/>
		</clipPath>
		<path class="st1" d="M35.9,12.8c1.2,0,2.1-0.9,2.1-2.1c0-1.2-0.9-2.1-2.1-2.1s-2.1,1-2.1,2.1C33.8,11.8,34.7,12.8,35.9,12.8"/>
	</g>
	<g>
		<defs>
			<rect id="SVGID_3_" x="-9.9" width="60.1" height="41.7"/>
		</defs>
		<clipPath id="SVGID_4_">
			<use xlink:href="#SVGID_3_"  style="overflow:visible;"/>
		</clipPath>
		<path class="st2" d="M4.3,21.1c0-8.5,6.5-15.5,14.9-16.3V0.5C8.5,1.3,0,10.2,0,21.1s8.4,19.8,19.1,20.6v-4.3
			C10.8,36.6,4.3,29.6,4.3,21.1"/>
	</g>
	<g>
		<defs>
			<rect id="SVGID_5_" x="-9.9" width="60.1" height="41.7"/>
		</defs>
		<clipPath id="SVGID_6_">
			<use xlink:href="#SVGID_5_"  style="overflow:visible;"/>
		</clipPath>
		<path class="st3" d="M19.2,7.8c-1.3,0.1-2.5,0.5-3.7,0.9c-4.9,2-8.3,6.8-8.3,12.4s3.4,10.4,8.3,12.4c1.2,0.5,2.4,0.8,3.7,0.9V7.8z
			 M15.5,29c-2.6-1.7-4.3-4.6-4.3-7.9s1.7-6.2,4.3-7.9V29z"/>
	</g>
	<g>
		<defs>
			<rect id="SVGID_7_" x="-9.9" width="60.1" height="41.7"/>
		</defs>
		<clipPath id="SVGID_8_">
			<use xlink:href="#SVGID_7_"  style="overflow:visible;"/>
		</clipPath>
		<path class="st4" d="M37,21.1c0,5.4-2.6,10.2-6.6,13.1h6.1c3-3.6,4.7-8.2,4.7-13.1c0-2.3-0.5-5.9-1.7-8.2l-3.9,1.7
			C36.5,16.6,37,18.8,37,21.1"/>
	</g>
	<g>
		<defs>
			<rect id="SVGID_9_" x="-9.9" width="60.1" height="41.7"/>
		</defs>
		<clipPath id="SVGID_10_">
			<use xlink:href="#SVGID_9_"  style="overflow:visible;"/>
		</clipPath>
		<path class="st5" d="M25.6,8.8V5.5V1.1c-1.2-0.3-2.4-0.5-3.7-0.6v33.9c1.3-0.1,2.5-0.5,3.7-0.9c4.9-2,8.3-6.8,8.3-12.4
			C33.9,15.6,30.5,10.8,25.6,8.8 M25.6,29V13.2c2.6,1.7,4.3,4.6,4.3,7.9C30,24.4,28.2,27.4,25.6,29"/>
	</g>
</g>
<g>
	<path class="st6" d="M65.5,32.7c-6.8,0-10.8-4.4-10.8-12.1c0-7.8,4-12.1,11.2-12.1c5.9,0,9.4,3,9.8,8.2H71c-0.4-2.6-2.1-4-5.1-4
		c-4.2,0-6.4,2.8-6.4,7.9s2.3,7.8,6.2,7.8c2.9,0,4.8-1.5,5.3-4.3h4.6C75.4,29.3,71.5,32.7,65.5,32.7z"/>
	<path class="st6" d="M90.8,9l8.3,23h-5l-1.6-4.7h-8.9L82.1,32h-5l8.2-23H90.8z M84.9,23.4h6.4l-3.2-9.8L84.9,23.4z"/>
	<path class="st6" d="M101.5,9h10.8c4.8,0,7.2,2.1,7.2,5.8c0,2.3-0.9,3.9-2.8,4.7c2.4,1,3.6,2.8,3.6,5.4c0,4.4-2.9,7-8.4,7h-10.5
		L101.5,9L101.5,9z M111.4,17.9c2.3,0,3.4-0.7,3.4-2.5s-1.1-2.4-3.4-2.4H106v4.9H111.4z M111.6,27.9c2.6,0,3.8-0.9,3.8-3
		c0-2.2-1.2-3-3.8-3H106v6H111.6z"/>
	<path class="st6" d="M124.2,9h4.7v23h-4.7V9z"/>
</g>
</svg>
